<svg width="160" height="99" viewBox="0 0 160 99" fill="none" xmlns="http://www.w3.org/2000/svg">
<path d="M9.834 82.146C10.6553 82.2927 11.352 82.7253 11.924 83.444C12.496 84.1627 12.782 84.9767 12.782 85.886C12.782 86.6633 12.5767 87.3673 12.166 87.998C11.77 88.614 11.1907 89.1053 10.428 89.472C9.66533 89.824 8.778 90 7.766 90H1.65V74.71H7.48C8.52133 74.71 9.416 74.886 10.164 75.238C10.912 75.59 11.4767 76.0667 11.858 76.668C12.2393 77.2547 12.43 77.9147 12.43 78.648C12.43 79.528 12.1953 80.2613 11.726 80.848C11.2567 81.4347 10.626 81.8673 9.834 82.146ZM4.158 81.134H7.26C8.08133 81.134 8.71933 80.9507 9.174 80.584C9.64333 80.2027 9.878 79.66 9.878 78.956C9.878 78.2667 9.64333 77.7313 9.174 77.35C8.71933 76.954 8.08133 76.756 7.26 76.756H4.158V81.134ZM7.546 87.954C8.39667 87.954 9.064 87.7487 9.548 87.338C10.032 86.9273 10.274 86.3553 10.274 85.622C10.274 84.874 10.0173 84.28 9.504 83.84C8.99067 83.4 8.30867 83.18 7.458 83.18H4.158V87.954H7.546ZM26.4854 77.878V90H23.9774V88.57C23.5814 89.0687 23.0608 89.4647 22.4154 89.758C21.7848 90.0367 21.1101 90.176 20.3914 90.176C19.4381 90.176 18.5801 89.978 17.8174 89.582C17.0694 89.186 16.4754 88.5993 16.0354 87.822C15.6101 87.0447 15.3974 86.106 15.3974 85.006V77.878H17.8834V84.632C17.8834 85.7173 18.1548 86.5533 18.6974 87.14C19.2401 87.712 19.9808 87.998 20.9194 87.998C21.8581 87.998 22.5988 87.712 23.1414 87.14C23.6988 86.5533 23.9774 85.7173 23.9774 84.632V77.878H26.4854ZM31.0705 76.272C30.6159 76.272 30.2345 76.118 29.9265 75.81C29.6185 75.502 29.4645 75.1207 29.4645 74.666C29.4645 74.2113 29.6185 73.83 29.9265 73.522C30.2345 73.214 30.6159 73.06 31.0705 73.06C31.5105 73.06 31.8845 73.214 32.1925 73.522C32.5005 73.83 32.6545 74.2113 32.6545 74.666C32.6545 75.1207 32.5005 75.502 32.1925 75.81C31.8845 76.118 31.5105 76.272 31.0705 76.272ZM32.3025 77.878V90H29.7945V77.878H32.3025ZM38.1033 73.72V90H35.5953V73.72H38.1033ZM40.5601 83.884C40.5601 82.6667 40.8094 81.5887 41.3081 80.65C41.8214 79.7113 42.5108 78.9853 43.3761 78.472C44.2561 77.944 45.2314 77.68 46.3021 77.68C47.0941 77.68 47.8714 77.856 48.6341 78.208C49.4114 78.5453 50.0274 79 50.4821 79.572V73.72H53.0121V90H50.4821V88.174C50.0714 88.7607 49.4994 89.2447 48.7661 89.626C48.0474 90.0073 47.2188 90.198 46.2801 90.198C45.2241 90.198 44.2561 89.934 43.3761 89.406C42.5108 88.8633 41.8214 88.1153 41.3081 87.162C40.8094 86.194 40.5601 85.1013 40.5601 83.884ZM50.4821 83.928C50.4821 83.092 50.3061 82.366 49.9541 81.75C49.6168 81.134 49.1694 80.6647 48.6121 80.342C48.0548 80.0193 47.4534 79.858 46.8081 79.858C46.1628 79.858 45.5614 80.0193 45.0041 80.342C44.4468 80.65 43.9921 81.112 43.6401 81.728C43.3028 82.3293 43.1341 83.048 43.1341 83.884C43.1341 84.72 43.3028 85.4533 43.6401 86.084C43.9921 86.7147 44.4468 87.1987 45.0041 87.536C45.5761 87.8587 46.1774 88.02 46.8081 88.02C47.4534 88.02 48.0548 87.8587 48.6121 87.536C49.1694 87.2133 49.6168 86.744 49.9541 86.128C50.3061 85.4973 50.4821 84.764 50.4821 83.928ZM71.8991 74.71V76.756H67.8291V90H65.3211V76.756H61.2291V74.71H71.8991ZM79.6971 90.198C78.5531 90.198 77.5191 89.9413 76.5951 89.428C75.6711 88.9 74.9451 88.1667 74.4171 87.228C73.8891 86.2747 73.6251 85.1747 73.6251 83.928C73.6251 82.696 73.8964 81.6033 74.4391 80.65C74.9817 79.6967 75.7224 78.9633 76.6611 78.45C77.5997 77.9367 78.6484 77.68 79.8071 77.68C80.9657 77.68 82.0144 77.9367 82.9531 78.45C83.8917 78.9633 84.6324 79.6967 85.1751 80.65C85.7177 81.6033 85.9891 82.696 85.9891 83.928C85.9891 85.16 85.7104 86.2527 85.1531 87.206C84.5957 88.1593 83.8331 88.9 82.8651 89.428C81.9117 89.9413 80.8557 90.198 79.6971 90.198ZM79.6971 88.02C80.3424 88.02 80.9437 87.866 81.5011 87.558C82.0731 87.25 82.5351 86.788 82.8871 86.172C83.2391 85.556 83.4151 84.808 83.4151 83.928C83.4151 83.048 83.2464 82.3073 82.9091 81.706C82.5717 81.09 82.1244 80.628 81.5671 80.32C81.0097 80.012 80.4084 79.858 79.7631 79.858C79.1177 79.858 78.5164 80.012 77.9591 80.32C77.4164 80.628 76.9837 81.09 76.6611 81.706C76.3384 82.3073 76.1771 83.048 76.1771 83.928C76.1771 85.2333 76.5071 86.2453 77.1671 86.964C77.8417 87.668 78.6851 88.02 79.6971 88.02ZM93.3524 77.68C94.291 77.68 95.1197 77.8707 95.8384 78.252C96.5717 78.6187 97.1437 79.0807 97.5544 79.638V77.878H100.084V90.198C100.084 91.3127 99.8497 92.3027 99.3804 93.168C98.911 94.048 98.229 94.7373 97.3344 95.236C96.4544 95.7347 95.3984 95.984 94.1664 95.984C92.5237 95.984 91.1597 95.5953 90.0744 94.818C88.989 94.0553 88.373 93.014 88.2264 91.694H90.7124C90.903 92.3247 91.3064 92.8307 91.9224 93.212C92.553 93.608 93.301 93.806 94.1664 93.806C95.1784 93.806 95.9924 93.498 96.6084 92.882C97.239 92.266 97.5544 91.3713 97.5544 90.198V88.174C97.129 88.746 96.5497 89.23 95.8164 89.626C95.0977 90.0073 94.2764 90.198 93.3524 90.198C92.2964 90.198 91.3284 89.934 90.4484 89.406C89.583 88.8633 88.8937 88.1153 88.3804 87.162C87.8817 86.194 87.6324 85.1013 87.6324 83.884C87.6324 82.6667 87.8817 81.5887 88.3804 80.65C88.8937 79.7113 89.583 78.9853 90.4484 78.472C91.3284 77.944 92.2964 77.68 93.3524 77.68ZM97.5544 83.928C97.5544 83.092 97.3784 82.366 97.0264 81.75C96.689 81.134 96.2417 80.6647 95.6844 80.342C95.127 80.0193 94.5257 79.858 93.8804 79.858C93.235 79.858 92.6337 80.0193 92.0764 80.342C91.519 80.65 91.0644 81.112 90.7124 81.728C90.375 82.3293 90.2064 83.048 90.2064 83.884C90.2064 84.72 90.375 85.4533 90.7124 86.084C91.0644 86.7147 91.519 87.1987 92.0764 87.536C92.6484 87.8587 93.2497 88.02 93.8804 88.02C94.5257 88.02 95.127 87.8587 95.6844 87.536C96.2417 87.2133 96.689 86.744 97.0264 86.128C97.3784 85.4973 97.5544 84.764 97.5544 83.928ZM114.489 83.642C114.489 84.0967 114.459 84.5073 114.401 84.874H105.139C105.212 85.842 105.571 86.6193 106.217 87.206C106.862 87.7927 107.654 88.086 108.593 88.086C109.942 88.086 110.895 87.5213 111.453 86.392H114.159C113.792 87.5067 113.125 88.4233 112.157 89.142C111.203 89.846 110.015 90.198 108.593 90.198C107.434 90.198 106.393 89.9413 105.469 89.428C104.559 88.9 103.841 88.1667 103.313 87.228C102.799 86.2747 102.543 85.1747 102.543 83.928C102.543 82.6813 102.792 81.5887 103.291 80.65C103.804 79.6967 104.515 78.9633 105.425 78.45C106.349 77.9367 107.405 77.68 108.593 77.68C109.737 77.68 110.756 77.9293 111.651 78.428C112.545 78.9267 113.242 79.6307 113.741 80.54C114.239 81.4347 114.489 82.4687 114.489 83.642ZM111.871 82.85C111.856 81.926 111.526 81.1853 110.881 80.628C110.235 80.0707 109.436 79.792 108.483 79.792C107.617 79.792 106.877 80.0707 106.261 80.628C105.645 81.1707 105.278 81.9113 105.161 82.85H111.871ZM119.883 79.924V86.634C119.883 87.0887 119.985 87.4187 120.191 87.624C120.411 87.8147 120.777 87.91 121.291 87.91H122.831V90H120.851C119.721 90 118.856 89.736 118.255 89.208C117.653 88.68 117.353 87.822 117.353 86.634V79.924H115.923V77.878H117.353V74.864H119.883V77.878H122.831V79.924H119.883ZM131.412 77.68C132.336 77.68 133.158 77.878 133.876 78.274C134.61 78.67 135.182 79.2567 135.592 80.034C136.018 80.8113 136.23 81.75 136.23 82.85V90H133.744V83.224C133.744 82.1387 133.473 81.31 132.93 80.738C132.388 80.1513 131.647 79.858 130.708 79.858C129.77 79.858 129.022 80.1513 128.464 80.738C127.922 81.31 127.65 82.1387 127.65 83.224V90H125.142V73.72H127.65V79.286C128.076 78.7727 128.611 78.3767 129.256 78.098C129.916 77.8193 130.635 77.68 131.412 77.68ZM150.539 83.642C150.539 84.0967 150.51 84.5073 150.451 84.874H141.189C141.263 85.842 141.622 86.6193 142.267 87.206C142.913 87.7927 143.705 88.086 144.643 88.086C145.993 88.086 146.946 87.5213 147.503 86.392H150.209C149.843 87.5067 149.175 88.4233 148.207 89.142C147.254 89.846 146.066 90.198 144.643 90.198C143.485 90.198 142.443 89.9413 141.519 89.428C140.61 88.9 139.891 88.1667 139.363 87.228C138.85 86.2747 138.593 85.1747 138.593 83.928C138.593 82.6813 138.843 81.5887 139.341 80.65C139.855 79.6967 140.566 78.9633 141.475 78.45C142.399 77.9367 143.455 77.68 144.643 77.68C145.787 77.68 146.807 77.9293 147.701 78.428C148.596 78.9267 149.293 79.6307 149.791 80.54C150.29 81.4347 150.539 82.4687 150.539 83.642ZM147.921 82.85C147.907 81.926 147.577 81.1853 146.931 80.628C146.286 80.0707 145.487 79.792 144.533 79.792C143.668 79.792 142.927 80.0707 142.311 80.628C141.695 81.1707 141.329 81.9113 141.211 82.85H147.921ZM155.515 79.638C155.882 79.022 156.366 78.5453 156.967 78.208C157.583 77.856 158.309 77.68 159.145 77.68V80.276H158.507C157.525 80.276 156.777 80.5253 156.263 81.024C155.765 81.5227 155.515 82.388 155.515 83.62V90H153.007V77.878H155.515V79.638Z" fill="#E6E6E6"/>
<path d="M15.872 64.64C13.3547 64.64 11.2853 64.4693 9.664 64.128C8.04267 63.8293 6.74133 63.3813 5.76 62.784C4.82133 62.144 4.16 61.3547 3.776 60.416C3.43467 59.4773 3.264 58.368 3.264 57.088C3.264 56.704 3.28533 56.1707 3.328 55.488C3.37067 54.7627 3.43467 53.76 3.52 52.48C3.60533 51.2 3.712 49.5573 3.84 47.552C4.01067 45.504 4.224 42.944 4.48 39.872C4.77867 36.0747 5.01333 33.0667 5.184 30.848C5.35467 28.6293 5.48267 26.9227 5.568 25.728C5.65333 24.4907 5.696 23.6373 5.696 23.168C5.73867 22.656 5.76 22.2293 5.76 21.888C5.76 21.2053 5.76 20.6507 5.76 20.224C5.80267 19.7973 5.84533 19.4773 5.888 19.264C5.97333 19.008 6.08 18.8373 6.208 18.752C6.37867 18.624 6.61333 18.56 6.912 18.56C9.42933 18.3893 11.5627 18.2613 13.312 18.176C15.104 18.0907 16.6613 18.048 17.984 18.048C21.2267 18.048 24 18.3253 26.304 18.88C28.6507 19.392 30.5493 20.1387 32 21.12C33.4507 22.1013 34.5173 23.3173 35.2 24.768C35.8827 26.2187 36.224 27.8613 36.224 29.696C36.224 30.72 36.1173 31.7867 35.904 32.896C35.6907 33.9627 35.328 34.9867 34.816 35.968C34.304 36.9493 33.6 37.824 32.704 38.592C31.8507 39.3173 30.7627 39.8507 29.44 40.192C31.9147 40.96 33.664 42.24 34.688 44.032C35.712 45.7813 36.224 47.872 36.224 50.304C36.224 52.2667 35.904 54.1227 35.264 55.872C34.624 57.5787 33.5147 59.0933 31.936 60.416C30.3573 61.696 28.2667 62.72 25.664 63.488C23.0613 64.256 19.7973 64.64 15.872 64.64ZM19.52 44.8C19.0507 44.8 18.4747 44.8427 17.792 44.928C17.1093 44.9707 16.4053 45.056 15.68 45.184L14.976 55.616C16.512 56.0853 17.8987 56.32 19.136 56.32C20.4587 56.32 21.5253 56.128 22.336 55.744C23.1467 55.36 23.7653 54.8907 24.192 54.336C24.6613 53.7387 24.96 53.0987 25.088 52.416C25.2587 51.6907 25.344 51.0293 25.344 50.432C25.344 48.8533 24.896 47.5307 24 46.464C23.1467 45.3547 21.6533 44.8 19.52 44.8ZM16.832 27.2C16.7467 28.3093 16.6613 29.6107 16.576 31.104C16.5333 32.5973 16.448 34.2187 16.32 35.968C17.6853 36.3093 18.9013 36.48 19.968 36.48C21.248 36.48 22.272 36.3307 23.04 36.032C23.808 35.7333 24.4053 35.3493 24.832 34.88C25.3013 34.4107 25.6 33.8987 25.728 33.344C25.8987 32.7893 25.984 32.256 25.984 31.744C25.984 30.4213 25.536 29.2907 24.64 28.352C23.7867 27.3707 22.2933 26.88 20.16 26.88C19.6907 26.88 19.1573 26.9227 18.56 27.008C18.0053 27.0507 17.4293 27.1147 16.832 27.2ZM53.598 34.24C53.598 35.136 53.5127 36.3947 53.342 38.016C53.214 39.6373 53.0647 41.3227 52.894 43.072C52.766 44.8213 52.6167 46.464 52.446 48C52.318 49.536 52.254 50.6453 52.254 51.328C52.254 52.8213 52.6167 53.9947 53.342 54.848C54.11 55.6587 55.1553 56.064 56.478 56.064C57.63 56.064 58.59 55.616 59.358 54.72C60.1687 53.7813 60.8087 52.5867 61.278 51.136C61.79 49.6427 62.1953 47.9573 62.494 46.08C62.7927 44.2027 63.006 42.304 63.134 40.384C63.3047 38.464 63.4327 36.608 63.518 34.816C63.646 32.9813 63.774 31.4027 63.902 30.08C63.9447 29.7387 64.0727 29.44 64.286 29.184C64.4993 28.928 64.8407 28.8 65.31 28.8H67.614C68.9367 28.8 70.0033 28.9493 70.814 29.248C71.6673 29.504 72.3287 29.888 72.798 30.4C73.31 30.912 73.6513 31.552 73.822 32.32C74.0353 33.0453 74.142 33.8987 74.142 34.88C74.142 35.52 74.0993 36.4373 74.014 37.632C73.9713 38.784 73.8647 40.4053 73.694 42.496C73.5233 44.544 73.31 47.168 73.054 50.368C72.8407 53.5253 72.5633 57.4507 72.222 62.144C72.1367 63.04 72.03 63.5733 71.902 63.744C71.8167 63.9147 71.4753 64 70.878 64H68.382C67.102 64 66.0353 63.8507 65.182 63.552C64.3713 63.2533 63.71 62.8693 63.198 62.4C62.686 61.9307 62.3233 61.376 62.11 60.736C61.8967 60.096 61.7687 59.4347 61.726 58.752C61.086 59.8613 60.3607 60.8 59.55 61.568C58.782 62.336 57.9713 62.9547 57.118 63.424C56.2647 63.8507 55.39 64.1493 54.494 64.32C53.598 64.5333 52.7233 64.64 51.87 64.64C50.2487 64.64 48.798 64.384 47.518 63.872C46.238 63.3173 45.15 62.592 44.254 61.696C43.4007 60.8 42.7393 59.7333 42.27 58.496C41.8007 57.2587 41.566 55.936 41.566 54.528C41.566 53.9733 41.5873 53.0773 41.63 51.84C41.7153 50.56 41.8007 49.1307 41.886 47.552C42.014 45.9733 42.142 44.3093 42.27 42.56C42.398 40.768 42.5047 39.0827 42.59 37.504C42.718 35.9253 42.8247 34.5387 42.91 33.344C43.038 32.1493 43.1233 31.296 43.166 30.784C43.2513 30.016 43.422 29.504 43.678 29.248C43.934 28.9493 44.3607 28.8 44.958 28.8H47.006C48.3287 28.8 49.4167 28.928 50.27 29.184C51.1233 29.44 51.7847 29.8027 52.254 30.272C52.766 30.7413 53.1073 31.3173 53.278 32C53.4913 32.64 53.598 33.3867 53.598 34.24Z" fill="white"/>
<path d="M101.125 27.52L98.693 63.04C98.6503 63.68 98.4157 64 97.989 64H94.469C92.0797 64 90.373 63.5307 89.349 62.592C88.325 61.6533 87.813 60.3093 87.813 58.56C87.813 57.92 87.8343 56.96 87.877 55.68C87.9623 54.4 88.069 52.9067 88.197 51.2C88.325 49.4507 88.453 47.5733 88.581 45.568C88.7517 43.52 88.9223 41.472 89.093 39.424C89.2637 37.3333 89.413 35.264 89.541 33.216C89.7117 31.168 89.861 29.2693 89.989 27.52H79.749C79.2797 27.52 79.045 27.2213 79.045 26.624L79.237 23.04C79.2797 22.4853 79.365 21.952 79.493 21.44C79.6637 20.8853 79.9197 20.3947 80.261 19.968C80.6023 19.5413 81.029 19.2 81.541 18.944C82.0957 18.688 82.757 18.56 83.525 18.56H112.133C112.389 18.56 112.624 18.624 112.837 18.752C113.05 18.88 113.157 19.1147 113.157 19.456L112.901 23.232C112.816 24.512 112.453 25.5573 111.813 26.368C111.216 27.136 109.957 27.52 108.037 27.52H101.125ZM125.273 64.64C122.329 64.64 119.875 64.2347 117.913 63.424C115.993 62.5707 114.457 61.4187 113.305 59.968C112.153 58.5173 111.342 56.832 110.873 54.912C110.403 52.9493 110.169 50.8587 110.169 48.64C110.169 46.08 110.467 43.584 111.065 41.152C111.705 38.6773 112.771 36.48 114.265 34.56C115.758 32.64 117.721 31.104 120.153 29.952C122.627 28.7573 125.699 28.16 129.369 28.16C134.745 28.16 138.585 29.4827 140.889 32.128C143.235 34.7307 144.409 38.4 144.409 43.136C144.409 44.4587 144.302 45.9307 144.089 47.552C143.918 49.1307 143.555 50.7093 143.001 52.288C142.489 53.8667 141.763 55.4027 140.825 56.896C139.929 58.3893 138.777 59.712 137.369 60.864C135.961 62.016 134.254 62.9333 132.249 63.616C130.286 64.2987 127.961 64.64 125.273 64.64ZM128.281 36.672C126.659 36.672 125.358 37.0987 124.377 37.952C123.438 38.7627 122.713 39.7653 122.201 40.96C121.731 42.112 121.411 43.3493 121.241 44.672C121.113 45.952 121.049 47.04 121.049 47.936C121.049 50.752 121.497 52.8213 122.393 54.144C123.289 55.4667 124.569 56.128 126.233 56.128C127.726 56.128 128.942 55.6587 129.881 54.72C130.862 53.7813 131.609 52.6507 132.121 51.328C132.675 50.0053 133.038 48.6187 133.209 47.168C133.422 45.7173 133.529 44.5013 133.529 43.52C133.529 41.3867 133.123 39.7227 132.313 38.528C131.545 37.2907 130.201 36.672 128.281 36.672Z" fill="#0016CC"/>
</svg>
