<svg width="648" height="524" viewBox="0 0 648 524" fill="none" xmlns="http://www.w3.org/2000/svg">
<path opacity="0.34" d="M580.779 523.606H56.9358C50.2524 523.606 44.838 518.191 44.838 511.508C44.838 504.825 50.2524 499.41 56.9358 499.41H580.779C587.462 499.41 592.877 504.825 592.877 511.508C592.877 518.191 587.462 523.606 580.779 523.606Z" fill="#7F8AE5"/>
<path d="M619.272 364.219H512.761C501.932 364.219 493.133 355.421 493.133 344.592C493.133 333.763 501.932 324.965 512.761 324.965H572.234C585.094 324.965 595.499 314.559 595.499 301.7C595.499 288.841 585.094 278.435 572.234 278.435H519.359C504.893 278.435 493.133 266.676 493.133 252.209C493.133 237.742 504.893 225.983 519.359 225.983H578.156C591.016 225.983 601.506 215.493 601.506 202.633C601.506 189.774 591.016 179.284 578.156 179.284H493.218H472.914C460.055 179.284 449.564 168.793 449.564 155.934C449.564 143.075 460.055 132.585 472.914 132.585H495.925C508.784 132.585 519.275 122.094 519.275 109.235C519.275 96.3758 508.784 85.8854 495.925 85.8854H482.812H480.613H341.615H336.877H191.704H158.456C145.597 85.8854 135.106 96.3758 135.106 109.235C135.106 122.094 145.597 132.585 158.456 132.585H168.354C181.213 132.585 191.704 143.075 191.704 155.934C191.704 168.793 181.213 179.284 168.354 179.284H79.2702C69.372 179.284 61.335 187.321 61.335 197.219C61.335 207.117 69.372 215.154 79.2702 215.154H173.092C183.413 215.154 191.788 223.53 191.788 233.851C191.788 244.172 183.413 252.547 173.092 252.547H23.3496C10.4904 252.547 0 263.038 0 275.897C0 288.756 10.4904 299.247 23.3496 299.247H168.354C181.213 299.247 191.704 309.737 191.704 322.596C191.704 335.455 181.213 345.946 168.354 345.946H80.793C60.1506 345.946 43.3998 362.697 43.3998 383.339C43.3998 403.981 60.1506 420.732 80.793 420.732H191.704H240.941H268.605H493.218H619.272C634.838 420.732 647.444 408.127 647.444 392.56C647.444 376.825 634.838 364.219 619.272 364.219Z" fill="#7F8AE5"/>
<path d="M421.653 511.528H436.881V282.432H421.653V511.528Z" fill="#2F262D"/>
<path d="M363.695 328.603C361.242 323.104 363.695 316.589 369.279 314.051C370.717 313.459 372.24 313.121 373.763 313.121C378.077 313.121 382.054 315.659 383.83 319.635L437.974 441.628L417.839 450.596L363.695 328.603Z" fill="#FC9F6F"/>
<path d="M273.177 511.528H288.405V282.432H273.177V511.528Z" fill="#2F262D"/>
<path d="M343.645 297.385C291.278 297.385 248.893 257.454 248.893 208.302C248.893 195.612 251.77 183.514 256.846 172.516C223.513 186.306 200.248 217.692 200.248 254.07C200.248 303.307 242.633 343.154 295 343.154C333.832 343.154 367.164 321.243 381.8 289.856C370.04 294.678 357.181 297.385 343.645 297.385Z" fill="#F2F2F2"/>
<path d="M291.193 321.496C319.835 321.496 343.053 300.172 343.053 273.867C343.053 247.561 319.835 226.237 291.193 226.237C262.552 226.237 239.333 247.561 239.333 273.867C239.333 300.172 262.552 321.496 291.193 321.496Z" fill="#3B323A"/>
<path d="M197.795 282.411H81.8082C77.409 282.411 73.7712 278.773 73.7712 274.374V266.76C73.7712 262.361 77.409 258.723 81.8082 258.723H197.795C202.194 258.723 205.832 262.361 205.832 266.76V274.374C205.832 278.773 202.194 282.411 197.795 282.411Z" fill="#AFAFAF"/>
<path d="M336.116 237.573C319.873 237.573 306.675 224.376 306.675 208.132V178.692C306.675 167.44 297.623 158.388 286.371 158.388V208.132C286.371 235.627 308.621 257.877 336.116 257.877H377.316V237.573H336.116Z" fill="#EF9067"/>
<path d="M342.799 82.163C339.754 120.656 305.914 163.294 274.273 157.88C243.986 152.719 223.175 104.92 233.411 71.4188C239.756 50.7764 257.184 37.8326 271.228 27.4268C285.779 16.598 295.592 9.32238 306.76 11.099C328.925 14.483 345.253 51.5378 342.799 82.163Z" fill="#603936"/>
<path d="M300.076 191.72C299.484 191.043 294.746 185.544 293.9 184.783C291.701 175.731 287.217 165.748 288.148 154.073C281.803 149.42 271.312 143.498 259.384 144.344C255.83 144.598 252.108 145.444 250.247 145.867C239.926 148.236 233.411 152.043 231.296 153.312C228.42 155.088 226.982 155.934 225.29 157.626C220.721 162.364 219.622 168.117 219.029 171.501C213.953 200.941 217.93 229.198 218.437 231.651C219.368 236.135 220.637 240.111 220.637 240.111C222.752 246.795 225.29 250.94 225.967 252.801C229.351 261.938 237.049 281.142 245.171 295.778C251.093 296.709 264.544 302.631 273.427 299.585C286.963 294.932 314.881 284.526 324.864 282.411C312.428 268.452 301.007 252.886 298.046 233.935C297.284 229.029 296.608 224.206 296.1 219.469C297.284 218.877 304.475 215.239 305.914 207.963C307.436 200.095 301.261 193.074 300.076 191.72Z" fill="#F05364"/>
<path d="M269.525 173.863C276.906 171.804 280.946 163.168 278.549 154.572C276.152 145.976 268.225 140.676 260.845 142.735C253.464 144.793 249.424 153.43 251.821 162.025C254.218 170.621 262.145 175.921 269.525 173.863Z" fill="#EF9067"/>
<path d="M263.021 139.099C267.674 150.097 275.373 153.904 280.28 156.78C289.84 162.364 307.775 161.856 307.775 161.856C308.367 157.965 308.959 154.581 312.005 148.151C316.404 138.591 320.465 136.307 326.133 127.678C334.593 114.649 338.823 98.9138 336.116 97.391C334.17 96.2066 328.84 102.298 325.372 105.851C315.473 116.003 293.308 131.062 263.021 139.099Z" fill="#603936"/>
<path d="M262.683 163.294H259.13C251.347 163.294 245.086 157.034 245.086 149.251V95.8682H273.173V152.719C273.173 158.557 268.436 163.294 262.683 163.294Z" fill="#EF9067"/>
<path d="M104.551 511.528H119.779L119.779 282.432H104.551L104.551 511.528Z" fill="#2F262D"/>
<path d="M198.213 511.528H213.441L213.441 282.432H198.213L198.213 511.528Z" fill="#494149"/>
<path d="M513.311 511.528H528.539V282.432H513.311V511.528Z" fill="#494149"/>
<path opacity="0.71" d="M245.086 101.536C246.947 117.695 258.115 131.062 273.173 136.138V92.6533H245.086V101.536Z" fill="#D36B46"/>
<path d="M286.371 134.023C265.729 134.023 249.062 117.356 249.062 96.7141V51.1993C249.062 49.2535 250.585 47.7307 252.531 47.7307H305.575C315.558 47.7307 323.68 55.8523 323.68 65.8351V96.7141C323.68 117.356 307.013 134.023 286.371 134.023Z" fill="#FC9F6F"/>
<path d="M323.68 91.3844C323.257 92.3996 322.241 93.0764 321.142 93.0764H304.729C303.206 93.0764 301.937 91.8074 301.937 90.2846V81.0632C301.937 79.5404 303.206 78.2714 304.729 78.2714H321.142C322.241 78.2714 323.257 78.9482 323.68 79.9634V76.4102C322.918 75.9872 322.072 75.7334 321.142 75.7334H304.729C301.768 75.7334 299.399 78.1022 299.399 81.0632V90.2846C299.399 93.2456 301.768 95.6144 304.729 95.6144H321.142C322.072 95.6144 322.918 95.3606 323.68 94.9376V91.3844Z" fill="#DD9883"/>
<path d="M290.686 94.2607H274.273C271.989 94.2607 270.212 92.3995 270.212 90.1999V80.9785C270.212 78.6943 272.074 76.9177 274.273 76.9177H290.686C292.97 76.9177 294.746 78.7789 294.746 80.9785V90.1999C294.746 92.4841 292.885 94.2607 290.686 94.2607Z" stroke="#DD9883" stroke-width="3" stroke-miterlimit="10" stroke-linecap="round" stroke-linejoin="round"/>
<path opacity="0.6" d="M272.243 103.821V58.3057C272.243 56.3599 273.766 54.8371 275.711 54.8371L306.337 44.0929C303.037 39.7783 311.413 47.8153 305.575 47.8153H252.531C250.585 47.8153 249.062 49.3381 249.062 51.2839V96.7987C249.062 117.441 265.729 134.107 286.371 134.107C286.794 134.107 287.217 134.107 287.725 134.107C278.334 127.255 272.243 116.257 272.243 103.821Z" fill="#EF9067"/>
<path d="M321.142 92.5687H304.729C302.445 92.5687 300.668 90.7075 300.668 88.5079V79.2865C300.668 77.0023 302.53 75.2257 304.729 75.2257H321.142C323.426 75.2257 325.202 77.0869 325.202 79.2865V88.5079C325.202 90.7921 323.341 92.5687 321.142 92.5687Z" stroke="#F6CDF7" stroke-width="3" stroke-miterlimit="10" stroke-linecap="round" stroke-linejoin="round"/>
<path d="M296.1 115.242C291.362 115.242 287.555 111.435 287.555 106.782V102.805H304.475V106.782C304.475 111.435 300.753 115.242 296.1 115.242Z" fill="#FCFAFA"/>
<path d="M280.787 82.8397H288.401" stroke="#161515" stroke-width="3" stroke-miterlimit="10" stroke-linecap="round" stroke-linejoin="round"/>
<path d="M309.551 82.8397H317.165" stroke="#161515" stroke-width="3" stroke-miterlimit="10" stroke-linecap="round" stroke-linejoin="round"/>
<path d="M290.686 92.5687H274.273C271.989 92.5687 270.212 90.7075 270.212 88.5079V79.2865C270.212 77.0023 272.074 75.2257 274.273 75.2257H290.686C292.97 75.2257 294.746 77.0869 294.746 79.2865V88.5079C294.746 90.7921 292.885 92.5687 290.686 92.5687Z" stroke="#F6CDF7" stroke-width="3" stroke-miterlimit="10" stroke-linecap="round" stroke-linejoin="round"/>
<path d="M302.022 13.4677C291.785 0.270129 274.358 0.523932 271.143 0.185532C268.267 -0.406668 252.446 0.354735 240.856 3.40033C214.123 10.5067 195.511 34.7023 195.511 62.4511V97.9831C195.511 121.84 213.107 150.774 235.696 158.303C248.216 162.533 262.091 165.748 265.39 165.24C248.639 134.192 250.924 115.834 255.661 105.09C266.998 78.8635 300.245 79.7941 308.452 50.6071C308.621 49.7611 313.781 28.6957 302.022 13.4677Z" fill="#754743"/>
<path d="M406.418 257.623C407.264 255.424 407.687 253.055 407.687 250.602C407.687 239.35 398.635 230.298 387.383 230.298C376.132 230.298 367.079 239.35 367.079 250.602C367.079 253.055 367.502 255.424 368.348 257.623H406.418Z" fill="#EF9067"/>
<path d="M341.276 258.723C339.584 250.94 330.194 245.018 318.773 245.018C307.436 245.018 297.961 250.94 296.269 258.723H341.276Z" fill="#F4EFF0"/>
<path d="M229.858 199.503C236.68 199.503 242.21 190.829 242.21 180.13C242.21 169.43 236.68 160.756 229.858 160.756C223.037 160.756 217.507 169.43 217.507 180.13C217.507 190.829 223.037 199.503 229.858 199.503Z" fill="#EF9067"/>
<path d="M267.251 238.25C251.008 238.25 237.811 225.052 237.811 208.809V172.854C237.811 167.271 233.242 162.702 227.659 162.702C222.075 162.702 217.507 167.271 217.507 172.854V208.809C217.507 236.304 239.756 258.554 267.251 258.554H308.452V238.25H287.809H267.251Z" fill="#FC9F6F"/>
<path d="M438.313 258.723H343.561C342.376 258.723 341.361 257.708 341.361 256.524C341.361 255.339 342.376 254.324 343.561 254.324H438.397C439.582 254.324 440.597 255.339 440.597 256.524C440.597 257.708 439.582 258.723 438.313 258.723Z" fill="white"/>
<path d="M438.313 256.524H343.561C342.715 256.524 342.038 256.101 341.615 255.424C341.446 255.762 341.276 256.101 341.276 256.524C341.276 257.708 342.292 258.723 343.476 258.723H438.313C439.497 258.723 440.512 257.708 440.512 256.524C440.512 256.101 440.428 255.762 440.174 255.424C439.835 256.016 439.159 256.524 438.313 256.524Z" fill="#F4EFF0"/>
<path d="M361.919 258.723H343.561C342.376 258.723 341.361 257.708 341.361 256.524C341.361 255.339 342.376 254.324 343.561 254.324H361.919C363.103 254.324 364.118 255.339 364.118 256.524C364.118 257.708 363.188 258.723 361.919 258.723Z" fill="#F4EFF0"/>
<path d="M431.629 254.324H424.692V252.717C424.692 251.871 425.369 251.109 426.299 251.109H430.022C430.868 251.109 431.629 251.786 431.629 252.717V254.324Z" fill="#F4EFF0"/>
<path d="M423.169 254.324H416.232V252.717C416.232 251.871 416.909 251.109 417.839 251.109H421.562C422.408 251.109 423.169 251.786 423.169 252.717V254.324Z" fill="#F4EFF0"/>
<path d="M414.709 254.324H407.772V252.717C407.772 251.871 408.449 251.109 409.379 251.109H413.102C413.948 251.109 414.709 251.786 414.709 252.717V254.324Z" fill="#F4EFF0"/>
<path d="M406.249 254.324H399.312V252.717C399.312 251.871 399.989 251.109 400.919 251.109H404.642C405.488 251.109 406.249 251.786 406.249 252.717V254.324Z" fill="#F4EFF0"/>
<path d="M397.789 254.324H390.852V252.717C390.852 251.871 391.529 251.109 392.459 251.109H396.182C397.028 251.109 397.789 251.786 397.789 252.717V254.324Z" fill="#F4EFF0"/>
<path d="M389.329 254.324H382.392V252.717C382.392 251.871 383.069 251.109 383.999 251.109H387.722C388.568 251.109 389.329 251.786 389.329 252.717V254.324Z" fill="#F4EFF0"/>
<path d="M380.869 254.324H373.932V252.717C373.932 251.871 374.609 251.109 375.539 251.109H379.262C380.108 251.109 380.869 251.786 380.869 252.717V254.324Z" fill="#F4EFF0"/>
<path d="M372.409 254.324H365.472V252.717C365.472 251.871 366.149 251.109 367.079 251.109H370.802C371.648 251.109 372.409 251.786 372.409 252.717V254.324Z" fill="#F4EFF0"/>
<path d="M363.949 254.324H357.012V252.717C357.012 251.871 357.689 251.109 358.619 251.109H362.342C363.188 251.109 363.949 251.786 363.949 252.717V254.324Z" fill="#F4EFF0"/>
<path d="M355.489 254.324H348.552V252.717C348.552 251.871 349.229 251.109 350.159 251.109H353.882C354.728 251.109 355.489 251.786 355.489 252.717V254.324Z" fill="#F4EFF0"/>
<path d="M343.561 258.723H361.919C363.103 258.723 364.118 257.708 364.118 256.524H341.276C341.276 257.708 342.292 258.723 343.561 258.723Z" fill="#E2E2E2"/>
<path d="M351.767 327.418H284.848L284.341 291.886H367.249C372.832 291.886 377.316 296.37 377.316 301.954C377.231 316.082 365.81 327.418 351.767 327.418Z" fill="#352934"/>
<path d="M297.961 456.264L338.992 317.52C340.346 312.867 344.66 309.652 349.567 309.652C350.582 309.652 351.682 309.822 352.697 310.075C358.535 311.767 361.834 317.943 360.142 323.781L319.111 462.525L297.961 456.264Z" fill="#EF9067"/>
<path d="M332.055 444.928L297.961 434.86L340.938 289.602C343.73 280.212 353.628 274.797 363.019 277.589C372.409 280.381 377.824 290.279 375.032 299.67L332.055 444.928Z" fill="#352934"/>
<path d="M501.424 217.608H359.296C356.504 217.608 354.22 215.323 354.22 212.532L371.817 111.012C371.817 108.22 374.101 105.936 376.893 105.936H519.021C521.813 105.936 524.097 108.22 524.097 111.012L506.5 212.532C506.5 215.323 504.301 217.608 501.424 217.608Z" fill="#CECECE"/>
<path d="M509.884 217.608H367.756C364.964 217.608 362.68 215.323 362.68 212.532L380.277 111.012C380.277 108.22 382.561 105.936 385.353 105.936H527.481C530.273 105.936 532.557 108.22 532.557 111.012L514.96 212.532C514.96 215.323 512.761 217.608 509.884 217.608Z" fill="#F4EFF0"/>
<path d="M466.484 253.224L454.81 194.089H433.998C431.46 194.089 429.514 196.458 430.022 198.911L440.343 251.109C440.766 253.055 439.243 254.832 437.297 254.832H424.607C422.323 254.832 420.547 256.693 420.547 258.892H441.866H461.662C464.792 258.977 467.077 256.185 466.484 253.224Z" fill="#CECECE"/>
<path d="M467.584 258.977H446.011L433.49 195.527C433.321 194.766 433.913 194.173 434.675 194.173H458.955L470.968 255.001C471.307 257.031 469.699 258.977 467.584 258.977Z" fill="#F4EFF0"/>
<path d="M441.95 258.977H446.011L444.911 253.224H440.766L441.95 258.977Z" fill="#F4EFF0"/>
<path d="M441.95 258.977C444.065 258.977 445.673 257.031 445.25 254.916L444.911 253.224H440.343L441.95 258.977Z" fill="#CECECE"/>
<path d="M460.562 163.802C455.994 163.802 452.272 160.08 452.272 155.511C452.272 153.988 452.695 152.635 453.371 151.45C452.187 151.112 450.918 150.858 449.564 150.858C442.373 150.858 436.621 156.696 436.621 163.802C436.621 170.908 442.458 176.746 449.564 176.746C456.755 176.746 462.508 170.908 462.508 163.802C462.508 163.717 462.508 163.633 462.508 163.548C461.831 163.717 461.239 163.802 460.562 163.802Z" fill="#CECECE"/>
<path d="M362.173 308.045L292.462 326.403C273.512 331.394 254.308 317.943 245.086 295.693L353.12 273.613C362.596 271.159 372.325 276.828 374.778 286.303C377.316 295.863 371.648 305.591 362.173 308.045Z" fill="#3B323A"/>
<path d="M432.306 413.795L399.82 428.262L342.884 300.177C338.908 291.209 342.968 280.719 351.936 276.743C360.904 272.767 371.394 276.827 375.37 285.795L432.306 413.795Z" fill="#3B323A"/>
<path d="M190.773 282.411H553.03C557.429 282.411 561.067 278.773 561.067 274.374V266.76C561.067 262.361 557.429 258.723 553.03 258.723H190.773C186.374 258.723 182.736 262.361 182.736 266.76V274.374C182.736 278.773 186.289 282.411 190.773 282.411Z" fill="#F2F2F2"/>
<path d="M485.266 454.995L413.271 468.108C410.479 468.616 407.857 466.839 407.264 464.217L406.757 461.932C405.319 455.333 409.549 448.65 416.486 446.874L468.938 433.591C479.09 431.053 489.326 435.706 491.188 444.251L491.864 447.297C492.626 450.765 489.665 454.234 485.266 454.995Z" fill="#535452"/>
<path d="M488.057 448.481L407.603 463.117C407.434 463.117 407.264 463.201 407.095 463.201L407.349 464.216C407.941 466.924 410.564 468.616 413.356 468.108L485.35 454.995C489.749 454.234 492.795 450.765 492.034 447.297L491.949 447.043C490.765 447.72 489.496 448.227 488.057 448.481Z" fill="#FFFDFD"/>
<path d="M336.623 500.256L276.473 458.633C274.189 457.026 273.512 453.895 275.035 451.611L276.304 449.581C279.941 443.913 287.725 442.136 293.816 445.858L340.261 473.607C349.313 479.022 353.205 489.597 348.467 496.872L346.775 499.495C344.914 502.456 340.261 502.794 336.623 500.256Z" fill="#424441"/>
<path d="M343.222 497.634L275.965 451.104C275.796 451.019 275.711 450.85 275.542 450.765L275.035 451.611C273.596 453.895 274.189 457.026 276.473 458.633L336.623 500.256C340.261 502.794 344.914 502.456 346.775 499.495L346.945 499.241C345.676 498.987 344.407 498.395 343.222 497.634Z" fill="#CECECE"/>
<path d="M170.046 258.723H156.341C149.404 258.723 143.735 253.055 143.735 246.118V208.809H182.651V246.118C182.736 253.055 177.068 258.723 170.046 258.723Z" fill="#FF6161"/>
<path d="M148.135 213.885C139.082 213.885 131.807 221.245 131.807 230.213C131.807 239.181 139.167 246.541 148.135 246.541C157.102 246.541 164.462 239.181 164.462 230.213C164.462 221.245 157.102 213.885 148.135 213.885ZM148.135 242.988C141.113 242.988 135.36 237.235 135.36 230.213C135.36 223.191 141.113 217.438 148.135 217.438C155.156 217.438 160.909 223.191 160.909 230.213C160.825 237.319 155.156 242.988 148.135 242.988Z" fill="#F4A36C"/>
<path d="M170.046 258.723H156.341C149.404 258.723 143.735 253.055 143.735 246.118V208.809H182.651V246.118C182.736 253.055 177.068 258.723 170.046 258.723Z" fill="#F7BC8B"/>
<path d="M162.178 246.879C158.287 246.879 155.156 243.749 155.156 239.857V208.809H143.735V246.118C143.735 253.055 149.404 258.723 156.341 258.723H170.046C176.729 258.723 182.228 253.478 182.651 246.879H162.178Z" fill="#EFA573"/>
<path d="M323.51 258.723C324.356 256.524 324.779 254.155 324.779 251.701C324.779 240.45 315.727 231.397 304.475 231.397C293.224 231.397 284.171 240.45 284.171 251.701C284.171 254.155 284.594 256.524 285.44 258.723H323.51Z" fill="#FC9F6F"/>
<path opacity="0.77" d="M158.963 202.041C162 202.041 164.462 199.579 164.462 196.542C164.462 193.505 162 191.043 158.963 191.043C155.926 191.043 153.464 193.505 153.464 196.542C153.464 199.579 155.926 202.041 158.963 202.041Z" fill="#F2F2F2"/>
<path opacity="0.77" d="M169.115 185.544C173.648 185.544 177.322 181.87 177.322 177.338C177.322 172.806 173.648 169.132 169.115 169.132C164.583 169.132 160.909 172.806 160.909 177.338C160.909 181.87 164.583 185.544 169.115 185.544Z" fill="#F2F2F2"/>
<path d="M88.83 132.585C101.726 132.585 112.18 122.131 112.18 109.235C112.18 96.3394 101.726 85.8854 88.83 85.8854C75.9344 85.8854 65.4804 96.3394 65.4804 109.235C65.4804 122.131 75.9344 132.585 88.83 132.585Z" fill="#7F8AE5"/>
</svg>
